<?xml version="1.0" standalone="no"?>
<!DOCTYPE svg PUBLIC "-//W3C//DTD SVG 20010904//EN"
 "http://www.w3.org/TR/2001/REC-SVG-20010904/DTD/svg10.dtd">
<svg version="1.0" xmlns="http://www.w3.org/2000/svg"
 width="512.000000pt" height="512.000000pt" viewBox="0 0 512.000000 512.000000"
 preserveAspectRatio="xMidYMid meet">
<metadata>
Created by potrace 1.11, written by Peter Selinger 2001-2013
</metadata>
<g transform="translate(0.000000,512.000000) scale(0.100000,-0.100000)"
fill="#000000" stroke="none">
<path d="M0 4430 l0 -690 505 0 505 0 0 178 c0 97 5 184 10 192 8 13 66 16
387 20 l378 5 5 233 c4 192 8 234 20 242 8 5 118 10 245 10 127 0 237 -5 245
-10 12 -8 16 -50 20 -242 l5 -233 145 0 145 0 5 233 c4 192 8 234 20 242 8 5
118 10 247 10 197 0 234 -2 247 -16 14 -13 16 -51 16 -258 0 -183 3 -246 13
-253 6 -6 37 -16 67 -23 84 -19 221 -82 293 -133 62 -44 187 -170 187 -188 0
-5 140 -9 310 -9 l310 0 0 240 0 240 100 0 100 0 2 258 c3 249 4 257 23 257
19 0 20 -8 23 -257 l2 -258 75 0 75 0 0 -240 0 -240 195 0 195 0 0 690 0 690
-2560 0 -2560 0 0 -690z m4932 -180 c2 -5 2 -46 0 -90 -3 -71 -6 -80 -23 -80
-17 0 -19 8 -19 83 0 46 3 87 7 90 10 10 31 8 35 -3z"/>
<path d="M0 1855 l0 -1855 2560 0 2560 0 0 1855 0 1855 -195 0 -195 0 0 -690
0 -690 -80 0 -80 0 0 -309 c0 -304 0 -309 -20 -304 -19 5 -20 14 -20 309 l0
304 -100 0 -100 0 0 -320 c0 -294 -1 -319 -17 -313 -10 4 -14 2 -9 -5 3 -6 2
-13 -3 -16 -5 -4 -8 1 -7 10 1 8 9 20 17 25 11 7 9 9 -8 9 -12 0 -27 -8 -33
-17 -11 -17 -11 -17 -6 0 4 12 0 17 -14 17 -11 0 -19 -6 -17 -12 1 -7 -9 -14
-23 -15 l-25 -2 25 7 c28 9 18 18 -23 20 -15 1 -26 -2 -23 -7 3 -5 -1 -11 -9
-15 -8 -3 -14 0 -12 7 1 6 -8 13 -20 15 -18 3 -21 0 -16 -13 5 -14 2 -16 -18
-10 -13 4 -27 13 -31 19 -6 8 -8 7 -8 -1 0 -8 -7 -10 -17 -6 -15 6 -16 4 -6
-9 17 -20 7 -28 -38 -28 -23 0 -39 5 -43 15 -3 9 0 15 10 15 8 0 13 -4 10 -8
-3 -5 1 -9 9 -9 8 0 12 4 9 8 -2 4 0 10 6 14 5 3 10 -1 10 -9 0 -9 8 -16 18
-15 10 0 12 3 5 6 -7 2 -13 10 -13 17 0 8 -16 13 -45 13 -25 1 -42 -3 -39 -8
3 -5 1 -9 -5 -9 -5 0 -11 5 -13 11 -2 6 -25 -31 -51 -83 -57 -113 -142 -217
-233 -287 -88 -66 -245 -143 -358 -176 -49 -14 -95 -30 -103 -36 -10 -9 -13
-64 -13 -255 0 -207 -2 -245 -16 -258 -13 -14 -50 -16 -247 -16 -129 0 -239 5
-247 10 -12 8 -16 50 -20 242 l-5 233 -145 0 -145 0 -5 -233 c-4 -192 -8 -234
-20 -242 -8 -5 -120 -10 -252 -10 -224 0 -238 1 -248 19 -6 12 -10 105 -10
233 0 153 -3 217 -12 226 -9 9 -106 12 -374 12 -316 0 -365 2 -378 16 -22 22
-24 385 -2 407 10 10 48 16 123 19 132 7 178 23 198 72 13 30 15 177 15 1007
0 1080 4 1021 -67 1054 -57 28 -240 37 -780 41 l-513 4 0 -1855z m4544 -160
c-4 -8 -8 -15 -10 -15 -2 0 -4 7 -4 15 0 8 4 15 10 15 5 0 7 -7 4 -15z m-476
-20 c-3 -3 -9 2 -12 12 -6 14 -5 15 5 6 7 -7 10 -15 7 -18z m-153 5 c3 -6 -1
-7 -9 -4 -18 7 -21 14 -7 14 6 0 13 -4 16 -10z m268 -7 c-7 -2 -19 -2 -25 0
-7 3 -2 5 12 5 14 0 19 -2 13 -5z m60 0 c-7 -2 -21 -2 -30 0 -10 3 -4 5 12 5
17 0 24 -2 18 -5z"/>
<path d="M3740 3706 c0 -2 11 -29 25 -61 146 -329 -16 -731 -362 -900 -41 -20
-73 -41 -71 -46 2 -6 46 -26 97 -46 103 -38 207 -101 278 -166 87 -80 181
-236 198 -330 17 -88 25 -22 25 198 l0 235 80 0 80 0 2 198 c3 189 4 197 23
197 19 0 20 -8 23 -197 l2 -198 95 0 95 0 0 560 0 560 -295 0 c-162 0 -295 -2
-295 -4z"/>
<path d="M2135 3609 c-3 -8 -4 -167 -3 -354 l3 -340 285 0 c239 1 295 3 350
18 141 38 223 98 269 196 22 47 26 70 26 141 0 147 -56 241 -175 294 -90 41
-138 46 -457 53 -245 5 -293 3 -298 -8z"/>
<path d="M2138 2434 c-5 -4 -8 -144 -8 -311 l0 -303 60 0 60 0 0 -49 c0 -27
-3 -56 -6 -65 -7 -18 -25 -22 -22 -5 2 6 -7 13 -19 15 -17 3 -21 0 -16 -11 4
-13 8 -13 22 -3 14 11 14 11 3 -4 -12 -15 -10 -17 15 -21 21 -3 19 -4 -9 -4
-20 1 -36 6 -35 11 1 6 -9 12 -23 14 -25 3 -25 2 -5 -14 16 -14 17 -16 3 -11
-24 8 -23 -14 1 -44 19 -24 21 -24 254 -27 206 -3 249 0 344 18 59 11 127 30
150 41 140 68 232 236 220 404 -9 142 -76 249 -189 306 -113 57 -146 62 -483
66 -170 3 -313 1 -317 -3z"/>
</g>
</svg>
