<?xml version="1.0" standalone="no"?>
<!DOCTYPE svg PUBLIC "-//W3C//DTD SVG 20010904//EN"
 "http://www.w3.org/TR/2001/REC-SVG-20010904/DTD/svg10.dtd">
<svg version="1.0" xmlns="http://www.w3.org/2000/svg"
 width="512.000000pt" height="512.000000pt" viewBox="0 0 512.000000 512.000000"
 preserveAspectRatio="xMidYMid meet">
<metadata>
Created by potrace 1.11, written by Peter Selinger 2001-2013
</metadata>
<g transform="translate(0.000000,512.000000) scale(0.100000,-0.100000)"
fill="#000000" stroke="none">
<path d="M0 4430 l0 -690 399 0 c345 0 400 -2 405 -15 5 -13 -44 -15 -399 -15
l-405 0 0 -1855 0 -1855 65 0 65 0 0 70 0 70 105 0 105 0 2 172 c3 165 4 173
23 173 19 0 20 -8 23 -173 l2 -172 90 0 90 0 0 -70 0 -70 105 0 105 0 0 70 0
70 -105 0 -105 0 0 290 0 290 105 0 105 0 0 209 c0 117 4 212 9 215 20 13 41
-132 41 -278 l0 -146 90 0 90 0 0 -290 0 -290 -90 0 -90 0 0 -70 0 -70 415 0
415 0 0 70 0 70 -105 0 -105 0 0 370 0 370 65 0 65 0 0 -122 c1 -242 43 -317
200 -354 30 -7 67 -13 83 -14 l27 0 0 -125 0 -125 -90 0 -90 0 0 -70 0 -70
1705 0 1705 0 0 1855 0 1855 -195 0 -195 0 0 -845 0 -845 -80 0 -80 0 -2 -362
c-3 -355 -3 -363 -23 -363 -20 0 -20 8 -23 363 l-2 362 -95 0 -95 0 0 -460 0
-460 -95 0 -94 0 -3 -152 c-3 -145 -4 -153 -23 -153 -19 0 -20 8 -23 153 l-3
152 -79 0 -80 0 0 -235 0 -235 -85 0 -85 0 -2 -237 c-3 -230 -4 -238 -23 -238
-19 0 -20 8 -23 238 l-2 237 -90 0 -90 0 0 203 0 204 88 52 c252 149 420 366
490 632 36 140 38 338 4 469 -20 77 -22 106 -20 285 3 192 4 200 23 200 19 0
20 -8 23 -197 l2 -198 95 0 95 0 0 715 0 715 -185 0 c-158 0 -185 2 -185 15 0
13 27 15 185 15 l185 0 0 85 0 85 100 0 100 0 2 258 c3 249 4 257 23 257 19 0
20 -8 23 -257 l2 -258 75 0 75 0 0 -85 0 -85 195 0 195 0 0 690 0 690 -2560 0
-2560 0 0 -690z m2302 172 c10 -10 14 -73 18 -240 l5 -227 145 0 145 0 5 227
c4 167 8 230 18 240 19 19 475 19 494 0 10 -10 14 -77 18 -264 l5 -251 81 -21
c227 -61 418 -204 509 -385 53 -105 69 -172 69 -291 0 -126 -14 -189 -65 -294
-78 -157 -191 -268 -356 -348 -46 -22 -82 -45 -81 -50 2 -6 45 -25 96 -43 222
-80 354 -191 448 -378 49 -97 67 -182 67 -317 1 -89 -4 -133 -22 -194 -46
-165 -151 -320 -286 -423 -88 -67 -245 -145 -350 -174 -126 -34 -114 -3 -117
-290 -3 -237 -4 -251 -23 -265 -27 -20 -467 -16 -487 4 -10 10 -14 73 -18 240
l-5 227 -145 0 -145 0 -5 -227 c-4 -167 -8 -230 -18 -240 -20 -20 -460 -24
-487 -4 -19 13 -20 29 -25 243 l-5 228 -372 5 c-287 4 -375 8 -385 18 -18 18
-19 385 -1 403 6 6 62 15 125 19 124 9 153 17 183 50 20 22 20 38 23 1016 3
1097 6 1036 -59 1070 -20 10 -75 19 -147 24 -93 6 -118 11 -129 26 -18 25 -14
377 5 396 10 10 99 14 385 18 l372 5 5 227 c3 131 9 231 15 237 19 17 50 19
267 18 163 -2 220 -5 230 -15z"/>
<path d="M2135 3607 c-3 -6 -4 -165 -3 -352 l3 -340 290 0 c243 0 300 3 352
17 194 54 293 167 293 337 0 107 -23 166 -89 232 -99 99 -199 119 -601 119
-184 0 -242 -3 -245 -13z"/>
<path d="M2134 2427 c-2 -7 -3 -188 -2 -401 l3 -388 25 -20 c23 -19 36 -19
310 -16 354 6 412 18 519 114 95 86 141 190 141 320 0 211 -120 346 -346 389
-104 20 -642 22 -650 2z"/>
</g>
</svg>
